<svg width="16" height="16" viewBox="0 0 16 16" fill="none" xmlns="http://www.w3.org/2000/svg"><path d="M16 8C16 12.4183 12.4183 16 8 16C3.58172 16 0 12.4183 0 8C0 3.58172 3.58172 0 8 0C12.4183 0 16 3.58172 16 8Z" fill="currentColor"></path><path fill-rule="evenodd" clip-rule="evenodd" d="M7.28832 12.7244C7.20127 12.767 7.1148 12.7988 7.02538 12.8C6.80863 12.8042 6.62919 12.6296 6.62564 12.4101C6.62742 12.3717 6.63512 12.3351 6.64814 12.2997L7.40676 8.78586L4.26392 8.79186C4.03651 8.79545 3.85825 8.6209 3.85352 8.40196C3.85588 8.27299 3.9228 8.15362 4.03118 8.08524L8.72206 3.2901C8.80852 3.23732 8.90149 3.20133 8.99743 3.20013C9.21477 3.19653 9.39303 3.37108 9.39776 3.59063C9.39599 3.65541 9.37822 3.71839 9.34506 3.77358L8.59118 7.23047H11.7388C11.9614 7.22687 12.1403 7.40142 12.1444 7.62096C12.1426 7.75113 12.0757 7.8705 11.9668 7.93888L7.28832 12.7244Z" fill="white"></path></svg>